<svg width="296" height="224" viewBox="0 0 296 224" fill="none" xmlns="http://www.w3.org/2000/svg" class="AccuracyChart-module--mobileChart--d95ad"><g clip-path="url(#clip0_3046_3308)"><path d="M0 7.46252L6.58714 9.02509C9.21871 9.64933 11.9598 9.64933 14.5914 9.02509V9.02509C18.8271 8.02032 23.2858 8.64558 27.0818 10.7767L27.374 10.9407C31.3201 13.1561 35.99 13.6959 40.3376 12.4393V12.4393C43.29 11.586 46.4192 11.554 49.3885 12.3468L62.4325 15.8298C65.4757 16.6423 68.6762 16.6635 71.7299 15.8913V15.8913C75.9193 14.832 80.3475 15.2743 84.2446 17.1415L88.4834 19.1724C93.3826 21.5196 99.0853 21.5015 103.969 19.1231V19.1231C108.994 16.6761 114.877 16.7312 119.855 19.2718L125.196 21.997C130.657 24.7839 137.075 24.9958 142.708 22.575V22.575C144.255 21.9103 145.877 21.4375 147.539 21.1673L151.91 20.4564C156.473 19.7143 161.098 21.3673 164.157 24.8338L166.3 27.2624C169.442 30.8223 174.705 31.571 178.715 29.0284V29.0284C182.069 26.9009 186.385 27.0447 189.591 29.3907L190.733 30.2264C194.244 32.7958 198.888 33.2115 202.8 31.3064L209.637 27.9764V27.9764C214.862 26.2209 220.584 26.7086 225.438 29.321V29.321C228.684 31.0679 232.353 31.8823 236.033 31.6721L237.971 31.5614C241.812 31.342 245.526 30.1119 248.739 27.9956L249.495 27.4973C254.798 24.0039 261.443 23.2307 267.406 25.413V25.413C269.331 26.1176 271.137 27.1136 272.76 28.366L273.17 28.6819C278.947 33.1393 286.473 34.6452 293.52 32.7537L296.069 32.0697" stroke="url(#paint0_linear_3046_3308)" stroke-width="1.12452"></path><path d="M0 10.59L8.17741 15.3528C10.9343 16.9586 14.2697 17.231 17.2506 16.0938V16.0938C20.1381 14.9923 23.3634 15.2118 26.0751 16.6944L27.6421 17.5512C31.2636 19.5312 35.5598 19.8649 39.4435 18.4678L40.1136 18.2268C43.2103 17.1129 46.575 16.9805 49.7496 17.8478L64.1907 21.7929C66.0384 22.2976 67.9785 22.3627 69.8559 21.9829L73.4096 21.2639C76.8777 20.5622 80.3751 22.3269 81.8714 25.5333V25.5333C82.7195 27.3509 84.2466 28.7634 86.1247 29.4674L92.4242 31.829C94.3809 32.5625 96.4541 32.9366 98.5438 32.9332V32.9332C106.284 32.9208 113.097 38.0363 115.245 45.473L129.59 95.1523C132.258 104.392 140.726 110.745 150.343 110.722V110.722C154.187 110.713 157.963 111.733 161.281 113.675L170.357 118.988C175.981 122.281 182.385 124.005 188.903 123.982L192.596 123.969C198.562 123.948 204.442 125.391 209.72 128.173L217.125 132.075C221.505 134.384 226.309 135.776 231.244 136.166L237.317 136.647C242.679 137.071 247.88 138.677 252.548 141.348L256.669 143.707L261.535 146.492C265.716 148.885 269.339 152.141 272.164 156.043L273.586 158.008C278.873 165.314 287.259 169.744 296.274 169.995V169.995" stroke="url(#paint1_linear_3046_3308)" stroke-width="1.12452"></path><path d="M0 189.068L296 189.068" stroke="#E4E5E1" stroke-width="1.10729"></path><path d="M0.5 211.141L2.4 203.841H3.61L5.5 211.141H4.59L4.11 209.201H1.9L1.42 211.141H0.5ZM2.08 208.441H3.92L3.36 206.191C3.25333 205.764 3.17 205.408 3.11 205.121C3.05 204.834 3.01333 204.648 3 204.561C2.98667 204.648 2.95 204.834 2.89 205.121C2.83 205.408 2.74667 205.761 2.64 206.181L2.08 208.441ZM10.1434 211.241C9.70339 211.241 9.32005 211.158 8.99339 210.991C8.67339 210.824 8.42339 210.584 8.24339 210.271C8.07005 209.951 7.98339 209.574 7.98339 209.141V205.841C7.98339 205.401 8.07005 205.024 8.24339 204.711C8.42339 204.398 8.67339 204.158 8.99339 203.991C9.32005 203.824 9.70339 203.741 10.1434 203.741C10.5834 203.741 10.9634 203.828 11.2834 204.001C11.6034 204.168 11.8501 204.408 12.0234 204.721C12.1967 205.034 12.2834 205.408 12.2834 205.841H11.3834C11.3834 205.428 11.2734 205.111 11.0534 204.891C10.8401 204.664 10.5367 204.551 10.1434 204.551C9.75005 204.551 9.44005 204.661 9.21339 204.881C8.99339 205.101 8.88339 205.418 8.88339 205.831V209.141C8.88339 209.554 8.99339 209.874 9.21339 210.101C9.44005 210.321 9.75005 210.431 10.1434 210.431C10.5367 210.431 10.8401 210.321 11.0534 210.101C11.2734 209.874 11.3834 209.554 11.3834 209.141H12.2834C12.2834 209.568 12.1967 209.941 12.0234 210.261C11.8501 210.574 11.6034 210.818 11.2834 210.991C10.9634 211.158 10.5834 211.241 10.1434 211.241ZM17.2468 211.241C16.8068 211.241 16.4234 211.158 16.0968 210.991C15.7768 210.824 15.5268 210.584 15.3468 210.271C15.1734 209.951 15.0868 209.574 15.0868 209.141V205.841C15.0868 205.401 15.1734 205.024 15.3468 204.711C15.5268 204.398 15.7768 204.158 16.0968 203.991C16.4234 203.824 16.8068 203.741 17.2468 203.741C17.6868 203.741 18.0668 203.828 18.3868 204.001C18.7068 204.168 18.9534 204.408 19.1268 204.721C19.3001 205.034 19.3868 205.408 19.3868 205.841H18.4868C18.4868 205.428 18.3768 205.111 18.1568 204.891C17.9434 204.664 17.6401 204.551 17.2468 204.551C16.8534 204.551 16.5434 204.661 16.3168 204.881C16.0968 205.101 15.9868 205.418 15.9868 205.831V209.141C15.9868 209.554 16.0968 209.874 16.3168 210.101C16.5434 210.321 16.8534 210.431 17.2468 210.431C17.6401 210.431 17.9434 210.321 18.1568 210.101C18.3768 209.874 18.4868 209.554 18.4868 209.141H19.3868C19.3868 209.568 19.3001 209.941 19.1268 210.261C18.9534 210.574 18.7068 210.818 18.3868 210.991C18.0668 211.158 17.6868 211.241 17.2468 211.241ZM24.3102 211.241C23.6302 211.241 23.1102 211.054 22.7502 210.681C22.3902 210.301 22.2102 209.788 22.2102 209.141V203.841H23.1102V209.141C23.1102 209.541 23.2068 209.858 23.4002 210.091C23.6002 210.324 23.9035 210.441 24.3102 210.441C24.7102 210.441 25.0102 210.324 25.2102 210.091C25.4102 209.858 25.5102 209.541 25.5102 209.141V203.841H26.4102V209.141C26.4102 209.794 26.2302 210.308 25.8702 210.681C25.5168 211.054 24.9968 211.241 24.3102 211.241ZM29.3335 211.141V203.841H31.5935C32.0269 203.841 32.4069 203.931 32.7335 204.111C33.0602 204.284 33.3135 204.528 33.4935 204.841C33.6735 205.154 33.7635 205.521 33.7635 205.941C33.7635 206.434 33.6335 206.858 33.3735 207.211C33.1202 207.564 32.7735 207.808 32.3335 207.941L33.8635 211.141H32.8035L31.4035 208.041H30.2335V211.141H29.3335ZM30.2335 207.231H31.5935C31.9669 207.231 32.2669 207.114 32.4935 206.881C32.7202 206.641 32.8335 206.328 32.8335 205.941C32.8335 205.548 32.7202 205.234 32.4935 205.001C32.2669 204.768 31.9669 204.651 31.5935 204.651H30.2335V207.231ZM36.0169 211.141L37.9169 203.841H39.1269L41.0169 211.141H40.1069L39.6269 209.201H37.4169L36.9369 211.141H36.0169ZM37.5969 208.441H39.4369L38.8769 206.191C38.7703 205.764 38.6869 205.408 38.6269 205.121C38.5669 204.834 38.5303 204.648 38.5169 204.561C38.5036 204.648 38.4669 204.834 38.4069 205.121C38.3469 205.408 38.2636 205.761 38.1569 206.181L37.5969 208.441ZM45.6603 211.241C45.2203 211.241 44.837 211.158 44.5103 210.991C44.1903 210.824 43.9403 210.584 43.7603 210.271C43.587 209.951 43.5003 209.574 43.5003 209.141V205.841C43.5003 205.401 43.587 205.024 43.7603 204.711C43.9403 204.398 44.1903 204.158 44.5103 203.991C44.837 203.824 45.2203 203.741 45.6603 203.741C46.1003 203.741 46.4803 203.828 46.8003 204.001C47.1203 204.168 47.367 204.408 47.5403 204.721C47.7136 205.034 47.8003 205.408 47.8003 205.841H46.9003C46.9003 205.428 46.7903 205.111 46.5703 204.891C46.357 204.664 46.0536 204.551 45.6603 204.551C45.267 204.551 44.957 204.661 44.7303 204.881C44.5103 205.101 44.4003 205.418 44.4003 205.831V209.141C44.4003 209.554 44.5103 209.874 44.7303 210.101C44.957 210.321 45.267 210.431 45.6603 210.431C46.0536 210.431 46.357 210.321 46.5703 210.101C46.7903 209.874 46.9003 209.554 46.9003 209.141H47.8003C47.8003 209.568 47.7136 209.941 47.5403 210.261C47.367 210.574 47.1203 210.818 46.8003 210.991C46.4803 211.158 46.1003 211.241 45.6603 211.241ZM52.2737 211.141V208.411L50.0737 203.841H51.0037L52.4537 206.841C52.5337 207.008 52.597 207.151 52.6437 207.271C52.6904 207.384 52.7204 207.468 52.7337 207.521C52.747 207.468 52.777 207.384 52.8237 207.271C52.877 207.151 52.9437 207.008 53.0237 206.841L54.4437 203.841H55.3737L53.1737 208.411V211.141H52.2737ZM64.8505 211.141V203.841H66.7405C67.2138 203.841 67.6205 203.931 67.9605 204.111C68.3071 204.291 68.5738 204.544 68.7605 204.871C68.9538 205.198 69.0505 205.584 69.0505 206.031V208.941C69.0505 209.388 68.9538 209.778 68.7605 210.111C68.5738 210.438 68.3071 210.691 67.9605 210.871C67.6205 211.051 67.2138 211.141 66.7405 211.141H64.8505ZM65.7505 210.341H66.7405C67.1805 210.341 67.5238 210.218 67.7705 209.971C68.0238 209.724 68.1505 209.381 68.1505 208.941V206.031C68.1505 205.598 68.0238 205.258 67.7705 205.011C67.5238 204.764 67.1805 204.641 66.7405 204.641H65.7505V210.341ZM71.9539 211.141V203.841H74.2139C74.6472 203.841 75.0272 203.931 75.3539 204.111C75.6805 204.284 75.9339 204.528 76.1139 204.841C76.2939 205.154 76.3839 205.521 76.3839 205.941C76.3839 206.434 76.2539 206.858 75.9939 207.211C75.7405 207.564 75.3939 207.808 74.9539 207.941L76.4839 211.141H75.4239L74.0239 208.041H72.8539V211.141H71.9539ZM72.8539 207.231H74.2139C74.5872 207.231 74.8872 207.114 75.1139 206.881C75.3405 206.641 75.4539 206.328 75.4539 205.941C75.4539 205.548 75.3405 205.234 75.1139 205.001C74.8872 204.768 74.5872 204.651 74.2139 204.651H72.8539V207.231ZM81.1372 211.241C80.6972 211.241 80.3172 211.158 79.9972 210.991C79.6839 210.824 79.4406 210.584 79.2672 210.271C79.1006 209.951 79.0172 209.574 79.0172 209.141V205.841C79.0172 205.401 79.1006 205.024 79.2672 204.711C79.4406 204.398 79.6839 204.158 79.9972 203.991C80.3172 203.824 80.6972 203.741 81.1372 203.741C81.5772 203.741 81.9539 203.824 82.2672 203.991C82.5872 204.158 82.8306 204.398 82.9972 204.711C83.1706 205.024 83.2572 205.398 83.2572 205.831V209.141C83.2572 209.574 83.1706 209.951 82.9972 210.271C82.8306 210.584 82.5872 210.824 82.2672 210.991C81.9539 211.158 81.5772 211.241 81.1372 211.241ZM81.1372 210.431C81.5306 210.431 81.8306 210.321 82.0372 210.101C82.2506 209.874 82.3572 209.554 82.3572 209.141V205.841C82.3572 205.428 82.2506 205.111 82.0372 204.891C81.8306 204.664 81.5306 204.551 81.1372 204.551C80.7506 204.551 80.4506 204.664 80.2372 204.891C80.0239 205.111 79.9172 205.428 79.9172 205.841V209.141C79.9172 209.554 80.0239 209.874 80.2372 210.101C80.4506 210.321 80.7506 210.431 81.1372 210.431ZM86.1606 211.141V203.841H88.5106C88.964 203.841 89.3573 203.931 89.6906 204.111C90.024 204.284 90.2806 204.531 90.4606 204.851C90.6473 205.171 90.7406 205.551 90.7406 205.991C90.7406 206.424 90.6473 206.804 90.4606 207.131C90.2806 207.451 90.024 207.701 89.6906 207.881C89.3573 208.054 88.964 208.141 88.5106 208.141H87.0606V211.141H86.1606ZM87.0606 207.331H88.5106C88.904 207.331 89.2173 207.211 89.4506 206.971C89.6906 206.724 89.8106 206.398 89.8106 205.991C89.8106 205.578 89.6906 205.251 89.4506 205.011C89.2173 204.771 88.904 204.651 88.5106 204.651H87.0606V207.331ZM95.344 211.241C94.904 211.241 94.524 211.158 94.204 210.991C93.8907 210.824 93.6473 210.584 93.474 210.271C93.3073 209.951 93.224 209.574 93.224 209.141V205.841C93.224 205.401 93.3073 205.024 93.474 204.711C93.6473 204.398 93.8907 204.158 94.204 203.991C94.524 203.824 94.904 203.741 95.344 203.741C95.784 203.741 96.1607 203.824 96.474 203.991C96.794 204.158 97.0373 204.398 97.204 204.711C97.3773 205.024 97.464 205.398 97.464 205.831V209.141C97.464 209.574 97.3773 209.951 97.204 210.271C97.0373 210.584 96.794 210.824 96.474 210.991C96.1607 211.158 95.784 211.241 95.344 211.241ZM95.344 210.431C95.7373 210.431 96.0373 210.321 96.244 210.101C96.4573 209.874 96.564 209.554 96.564 209.141V205.841C96.564 205.428 96.4573 205.111 96.244 204.891C96.0373 204.664 95.7373 204.551 95.344 204.551C94.9573 204.551 94.6573 204.664 94.444 204.891C94.2307 205.111 94.124 205.428 94.124 205.841V209.141C94.124 209.554 94.2307 209.874 94.444 210.101C94.6573 210.321 94.9573 210.431 95.344 210.431ZM100.397 211.141V203.831H104.697V204.651H101.277V207.081H104.437V207.901H101.297V211.141H100.397ZM107.501 211.141V203.831H111.801V204.651H108.381V207.081H111.541V207.901H108.401V211.141H107.501ZM123.798 211.241C123.358 211.241 122.974 211.158 122.648 210.991C122.328 210.824 122.078 210.584 121.898 210.271C121.724 209.951 121.638 209.574 121.638 209.141V205.841C121.638 205.401 121.724 205.024 121.898 204.711C122.078 204.398 122.328 204.158 122.648 203.991C122.974 203.824 123.358 203.741 123.798 203.741C124.238 203.741 124.618 203.828 124.938 204.001C125.258 204.168 125.504 204.408 125.678 204.721C125.851 205.034 125.938 205.408 125.938 205.841H125.038C125.038 205.428 124.928 205.111 124.708 204.891C124.494 204.664 124.191 204.551 123.798 204.551C123.404 204.551 123.094 204.661 122.868 204.881C122.648 205.101 122.538 205.418 122.538 205.831V209.141C122.538 209.554 122.648 209.874 122.868 210.101C123.094 210.321 123.404 210.431 123.798 210.431C124.191 210.431 124.494 210.321 124.708 210.101C124.928 209.874 125.038 209.554 125.038 209.141H125.938C125.938 209.568 125.851 209.941 125.678 210.261C125.504 210.574 125.258 210.818 124.938 210.991C124.618 211.158 124.238 211.241 123.798 211.241ZM128.791 211.141V203.841H129.691V206.961H132.031V203.841H132.931V211.141H132.031V207.781H129.691V211.141H128.791ZM135.464 211.141L137.364 203.841H138.574L140.464 211.141H139.554L139.074 209.201H136.864L136.384 211.141H135.464ZM137.044 208.441H138.884L138.324 206.191C138.218 205.764 138.134 205.408 138.074 205.121C138.014 204.834 137.978 204.648 137.964 204.561C137.951 204.648 137.914 204.834 137.854 205.121C137.794 205.408 137.711 205.761 137.604 206.181L137.044 208.441ZM142.988 211.141V203.841H145.248C145.681 203.841 146.061 203.931 146.388 204.111C146.714 204.284 146.968 204.528 147.148 204.841C147.328 205.154 147.418 205.521 147.418 205.941C147.418 206.434 147.288 206.858 147.028 207.211C146.774 207.564 146.428 207.808 145.988 207.941L147.518 211.141H146.458L145.058 208.041H143.888V211.141H142.988ZM143.888 207.231H145.248C145.621 207.231 145.921 207.114 146.148 206.881C146.374 206.641 146.488 206.328 146.488 205.941C146.488 205.548 146.374 205.234 146.148 205.001C145.921 204.768 145.621 204.651 145.248 204.651H143.888V207.231ZM151.721 211.141V204.651H149.721V203.831H154.621V204.651H152.621V211.141H151.721Z" fill="#A0A09D"></path><path d="M263.907 -9.18628L263.907 180.272" stroke="#E4E5E1" stroke-width="1.09312"></path><g filter="url(#filter0_d_3046_3308)"><rect x="258.402" y="19.0731" width="11.9587" height="11.9588" rx="5.97937" fill="#FF5D22" shape-rendering="crispEdges"></rect><rect x="258.402" y="19.0731" width="11.9587" height="11.9588" rx="5.97937" stroke="#F35B22" stroke-opacity="0.2" stroke-width="3.21557" shape-rendering="crispEdges"></rect><g filter="url(#filter1_i_3046_3308)"><rect x="261.165" y="21.8369" width="6.43113" height="6.43115" rx="3.21556" fill="white"></rect><rect x="261.165" y="21.8369" width="6.43113" height="6.43115" rx="3.21556" stroke="#FF5D22"></rect></g></g><g filter="url(#filter2_d_3046_3308)"><rect x="258.142" y="142.585" width="11.616" height="11.616" rx="5.80798" fill="#BEB4FC" shape-rendering="crispEdges"></rect><rect x="258.142" y="142.585" width="11.616" height="11.616" rx="5.80798" stroke="#907FDA" stroke-opacity="0.2" stroke-width="2.904" shape-rendering="crispEdges"></rect><g filter="url(#filter3_d_3046_3308)"><rect x="258.55" y="142.993" width="10.8" height="10.8" rx="5.4" fill="#907FDA" shape-rendering="crispEdges"></rect><rect x="258.55" y="142.993" width="10.8" height="10.8" rx="5.4" stroke="#907FDA" stroke-opacity="0.2" stroke-width="2.86682" shape-rendering="crispEdges"></rect><g filter="url(#filter4_i_3046_3308)"><rect x="261.083" y="145.527" width="5.73363" height="5.73365" rx="2.86682" fill="white"></rect><rect x="261.083" y="145.527" width="5.73363" height="5.73365" rx="2.86682" stroke="#907FDA"></rect></g></g></g><g filter="url(#filter5_dd_3046_3308)"><g clip-path="url(#clip1_3046_3308)"><rect x="151" y="44.001" width="131" height="79" rx="6" fill="white"></rect><rect x="151" y="44.001" width="131" height="79" rx="6" fill="url(#paint2_linear_3046_3308)" fill-opacity="0.02"></rect><mask id="path-14-inside-1_3046_3308" fill="white"><path d="M151 50.001C151 46.6873 153.686 44.001 157 44.001H282V69.001H151V50.001Z"></path></mask><path d="M151 44.001H282H151ZM282 70.001H151V68.001H282V70.001ZM151 69.001V44.001V69.001ZM282 44.001V69.001V44.001Z" fill="#E4E5E1" mask="url(#path-14-inside-1_3046_3308)"></path><path d="M157.823 61.001V60.181H159.803V54.451L157.823 55.931V54.931L159.473 53.701H160.703V60.181H162.323V61.001H157.823ZM163.839 61.001V60.081L166.069 57.711C166.449 57.3043 166.726 56.9443 166.899 56.631C167.073 56.311 167.159 56.0043 167.159 55.711C167.159 55.3043 167.046 54.9843 166.819 54.751C166.599 54.5176 166.296 54.401 165.909 54.401C165.483 54.401 165.146 54.521 164.899 54.761C164.659 55.001 164.539 55.331 164.539 55.751H163.639C163.653 55.311 163.753 54.931 163.939 54.611C164.133 54.2843 164.396 54.0343 164.729 53.861C165.069 53.6876 165.463 53.601 165.909 53.601C166.349 53.601 166.729 53.6876 167.049 53.861C167.376 54.0276 167.626 54.2676 167.799 54.581C167.973 54.8943 168.059 55.2676 168.059 55.701C168.059 56.1143 167.949 56.5243 167.729 56.931C167.509 57.3376 167.149 57.801 166.649 58.321L164.849 60.181H168.179V61.001H163.839ZM171.915 61.101C171.469 61.101 171.079 61.0143 170.745 60.841C170.419 60.661 170.165 60.411 169.985 60.091C169.805 59.7643 169.715 59.3843 169.715 58.951V55.751C169.715 55.311 169.805 54.931 169.985 54.611C170.165 54.291 170.419 54.0443 170.745 53.871C171.079 53.691 171.469 53.601 171.915 53.601C172.369 53.601 172.759 53.691 173.085 53.871C173.412 54.0443 173.665 54.291 173.845 54.611C174.025 54.931 174.115 55.311 174.115 55.751V58.951C174.115 59.3843 174.025 59.7643 173.845 60.091C173.665 60.411 173.409 60.661 173.075 60.841C172.749 61.0143 172.362 61.101 171.915 61.101ZM171.915 60.331C172.315 60.331 172.635 60.2043 172.875 59.951C173.122 59.691 173.245 59.3576 173.245 58.951V55.751C173.245 55.3443 173.122 55.0143 172.875 54.761C172.635 54.501 172.315 54.371 171.915 54.371C171.515 54.371 171.192 54.501 170.945 54.761C170.705 55.0143 170.585 55.3443 170.585 55.751V58.951C170.585 59.3576 170.705 59.691 170.945 59.951C171.192 60.2043 171.515 60.331 171.915 60.331ZM171.915 57.941C171.735 57.941 171.589 57.8843 171.475 57.771C171.369 57.6576 171.315 57.5076 171.315 57.321C171.315 57.141 171.369 56.9976 171.475 56.891C171.589 56.7776 171.735 56.721 171.915 56.721C172.095 56.721 172.239 56.7776 172.345 56.891C172.459 56.9976 172.515 57.141 172.515 57.321C172.515 57.5076 172.459 57.6576 172.345 57.771C172.239 57.8843 172.095 57.941 171.915 57.941ZM181.827 61.001V53.701H183.717C184.191 53.701 184.597 53.791 184.937 53.971C185.284 54.151 185.551 54.4043 185.737 54.731C185.931 55.0576 186.027 55.4443 186.027 55.891V58.801C186.027 59.2476 185.931 59.6376 185.737 59.971C185.551 60.2976 185.284 60.551 184.937 60.731C184.597 60.911 184.191 61.001 183.717 61.001H181.827ZM182.727 60.201H183.717C184.157 60.201 184.501 60.0776 184.747 59.831C185.001 59.5843 185.127 59.241 185.127 58.801V55.891C185.127 55.4576 185.001 55.1176 184.747 54.871C184.501 54.6243 184.157 54.501 183.717 54.501H182.727V60.201ZM187.404 61.001L189.304 53.701H190.514L192.404 61.001H191.494L191.014 59.061H188.804L188.324 61.001H187.404ZM188.984 58.301H190.824L190.264 56.051C190.157 55.6243 190.074 55.2676 190.014 54.981C189.954 54.6943 189.917 54.5076 189.904 54.421C189.89 54.5076 189.854 54.6943 189.794 54.981C189.734 55.2676 189.65 55.621 189.544 56.041L188.984 58.301ZM195.45 61.001V58.271L193.25 53.701H194.18L195.63 56.701C195.71 56.8676 195.773 57.011 195.82 57.131C195.866 57.2443 195.896 57.3276 195.91 57.381C195.923 57.3276 195.953 57.2443 196 57.131C196.053 57.011 196.12 56.8676 196.2 56.701L197.62 53.701H198.55L196.35 58.271V61.001H195.45ZM201.936 61.101C201.456 61.101 201.042 61.021 200.696 60.861C200.356 60.701 200.092 60.471 199.906 60.171C199.719 59.871 199.622 59.5143 199.616 59.101H200.516C200.516 59.4676 200.639 59.7576 200.886 59.971C201.139 60.1843 201.489 60.291 201.936 60.291C202.356 60.291 202.682 60.1876 202.916 59.981C203.156 59.7743 203.276 59.4876 203.276 59.121C203.276 58.8276 203.196 58.571 203.036 58.351C202.882 58.131 202.659 57.9776 202.366 57.891L201.376 57.581C200.876 57.4276 200.489 57.171 200.216 56.811C199.949 56.451 199.816 56.0276 199.816 55.541C199.816 55.1476 199.902 54.8076 200.076 54.521C200.256 54.2276 200.506 54.001 200.826 53.841C201.146 53.6743 201.522 53.591 201.956 53.591C202.596 53.591 203.109 53.771 203.496 54.131C203.882 54.4843 204.079 54.9576 204.086 55.551H203.186C203.186 55.191 203.076 54.911 202.856 54.711C202.642 54.5043 202.339 54.401 201.946 54.401C201.559 54.401 201.256 54.4943 201.036 54.681C200.822 54.8676 200.716 55.1276 200.716 55.461C200.716 55.761 200.796 56.021 200.956 56.241C201.116 56.461 201.346 56.6176 201.646 56.711L202.646 57.031C203.132 57.1843 203.509 57.4443 203.776 57.811C204.042 58.1776 204.176 58.6076 204.176 59.101C204.176 59.501 204.082 59.851 203.896 60.151C203.709 60.451 203.446 60.6843 203.106 60.851C202.772 61.0176 202.382 61.101 201.936 61.101Z" fill="#484946"></path><path d="M157.969 89.001V81.001H162.766V81.8604H158.938V84.5635H162.406V85.4229H158.938V89.001H157.969ZM164.3 89.001V83.001H165.222V89.001H164.3ZM164.769 82.001C164.589 82.001 164.434 81.9398 164.304 81.8174C164.176 81.695 164.112 81.5479 164.112 81.376C164.112 81.2041 164.176 81.057 164.304 80.9346C164.434 80.8122 164.589 80.751 164.769 80.751C164.948 80.751 165.102 80.8122 165.229 80.9346C165.36 81.057 165.425 81.2041 165.425 81.376C165.425 81.5479 165.36 81.695 165.229 81.8174C165.102 81.9398 164.948 82.001 164.769 82.001ZM167.832 85.3916V89.001H166.91V83.001H167.801V83.9385H167.879C168.02 83.6338 168.233 83.389 168.52 83.2041C168.806 83.0166 169.176 82.9229 169.629 82.9229C170.035 82.9229 170.391 83.0062 170.695 83.1729C171 83.3369 171.237 83.5869 171.406 83.9229C171.576 84.2562 171.66 84.6781 171.66 85.1885V89.001H170.738V85.251C170.738 84.7796 170.616 84.4124 170.371 84.1494C170.126 83.8838 169.79 83.751 169.363 83.751C169.069 83.751 168.806 83.8148 168.574 83.9424C168.345 84.07 168.164 84.2562 168.031 84.501C167.898 84.7458 167.832 85.0426 167.832 85.3916ZM175.767 91.376C175.321 91.376 174.938 91.3187 174.618 91.2041C174.298 91.0921 174.031 90.9437 173.817 90.7588C173.606 90.5765 173.438 90.3812 173.313 90.1729L174.048 89.6572C174.131 89.7666 174.237 89.8916 174.364 90.0322C174.492 90.1755 174.666 90.2992 174.888 90.4033C175.112 90.5101 175.405 90.5635 175.767 90.5635C176.251 90.5635 176.651 90.4463 176.966 90.2119C177.281 89.9775 177.438 89.6104 177.438 89.1104V87.8916H177.36C177.293 88.001 177.196 88.1364 177.071 88.2979C176.949 88.4567 176.772 88.5986 176.54 88.7236C176.311 88.846 176.001 88.9072 175.61 88.9072C175.126 88.9072 174.691 88.7926 174.306 88.5635C173.923 88.3343 173.619 88.001 173.396 87.5635C173.174 87.126 173.063 86.5947 173.063 85.9697C173.063 85.3551 173.172 84.82 173.388 84.3643C173.604 83.9059 173.905 83.5518 174.29 83.3018C174.675 83.0492 175.121 82.9229 175.626 82.9229C176.017 82.9229 176.326 82.988 176.556 83.1182C176.787 83.2458 176.965 83.3916 177.087 83.5557C177.212 83.7171 177.308 83.8499 177.376 83.9541H177.47V83.001H178.36V89.1729C178.36 89.6885 178.243 90.1077 178.009 90.4307C177.777 90.7562 177.465 90.9945 177.071 91.1455C176.681 91.2992 176.246 91.376 175.767 91.376ZM175.735 88.0791C176.105 88.0791 176.418 87.9945 176.673 87.8252C176.928 87.6559 177.122 87.4124 177.255 87.0947C177.388 86.777 177.454 86.3968 177.454 85.9541C177.454 85.5218 177.389 85.1403 177.259 84.8096C177.129 84.4788 176.936 84.2197 176.681 84.0322C176.425 83.8447 176.11 83.751 175.735 83.751C175.345 83.751 175.019 83.8499 174.759 84.0479C174.501 84.2458 174.307 84.5114 174.177 84.8447C174.049 85.1781 173.985 85.5479 173.985 85.9541C173.985 86.3708 174.05 86.7393 174.181 87.0596C174.313 87.3773 174.509 87.6273 174.767 87.8096C175.027 87.9893 175.35 88.0791 175.735 88.0791ZM182.563 89.126C181.985 89.126 181.487 88.9984 181.067 88.7432C180.651 88.4854 180.329 88.126 180.103 87.665C179.879 87.2015 179.767 86.6624 179.767 86.0479C179.767 85.4333 179.879 84.8916 180.103 84.4229C180.329 83.9515 180.644 83.5843 181.048 83.3213C181.454 83.0557 181.928 82.9229 182.47 82.9229C182.782 82.9229 183.091 82.9749 183.396 83.0791C183.7 83.1833 183.978 83.3525 184.228 83.5869C184.478 83.8187 184.677 84.126 184.825 84.5088C184.974 84.8916 185.048 85.363 185.048 85.9229V86.3135H180.423V85.5166H184.11C184.11 85.1781 184.043 84.876 183.907 84.6104C183.774 84.3447 183.584 84.1351 183.337 83.9814C183.092 83.8278 182.803 83.751 182.47 83.751C182.103 83.751 181.785 83.8421 181.517 84.0244C181.251 84.2041 181.047 84.4385 180.903 84.7275C180.76 85.0166 180.688 85.3265 180.688 85.6572V86.1885C180.688 86.6416 180.767 87.0257 180.923 87.3408C181.082 87.6533 181.302 87.8916 181.583 88.0557C181.864 88.2171 182.191 88.2979 182.563 88.2979C182.806 88.2979 183.024 88.264 183.22 88.1963C183.418 88.126 183.588 88.0218 183.731 87.8838C183.875 87.7432 183.985 87.5687 184.063 87.3604L184.954 87.6104C184.86 87.9124 184.703 88.1781 184.481 88.4072C184.26 88.6338 183.987 88.8109 183.661 88.9385C183.336 89.0635 182.97 89.126 182.563 89.126ZM186.45 89.001V83.001H187.341V83.9072H187.403C187.513 83.6104 187.711 83.3695 187.997 83.1846C188.284 82.9997 188.606 82.9072 188.966 82.9072C189.034 82.9072 189.118 82.9085 189.22 82.9111C189.321 82.9137 189.398 82.9176 189.45 82.9229V83.8604C189.419 83.8525 189.347 83.8408 189.235 83.8252C189.126 83.807 189.01 83.7979 188.888 83.7979C188.596 83.7979 188.336 83.859 188.106 83.9814C187.88 84.1012 187.7 84.2679 187.567 84.4814C187.437 84.6924 187.372 84.9333 187.372 85.2041V89.001H186.45ZM190.543 91.251V83.001H191.434V83.9541H191.543C191.611 83.8499 191.704 83.7171 191.824 83.5557C191.947 83.3916 192.121 83.2458 192.348 83.1182C192.577 82.988 192.887 82.9229 193.277 82.9229C193.783 82.9229 194.228 83.0492 194.613 83.3018C194.999 83.5544 195.299 83.9124 195.516 84.376C195.732 84.8395 195.84 85.3864 195.84 86.0166C195.84 86.652 195.732 87.2028 195.516 87.6689C195.299 88.1325 195 88.4919 194.617 88.7471C194.234 88.9997 193.793 89.126 193.293 89.126C192.908 89.126 192.599 89.0622 192.367 88.9346C192.135 88.8044 191.957 88.6572 191.832 88.4932C191.707 88.3265 191.611 88.1885 191.543 88.0791H191.465V91.251H190.543ZM191.449 86.001C191.449 86.4541 191.516 86.8538 191.648 87.2002C191.781 87.5439 191.975 87.8135 192.23 88.0088C192.486 88.2015 192.798 88.2979 193.168 88.2979C193.553 88.2979 193.875 88.1963 194.133 87.9932C194.393 87.7874 194.589 87.5114 194.719 87.165C194.852 86.8161 194.918 86.4281 194.918 86.001C194.918 85.5791 194.853 85.1989 194.723 84.8604C194.595 84.5192 194.401 84.2497 194.141 84.0518C193.883 83.8512 193.559 83.751 193.168 83.751C192.793 83.751 192.478 83.846 192.223 84.0361C191.967 84.2236 191.775 84.4867 191.645 84.8252C191.514 85.1611 191.449 85.5531 191.449 86.001ZM197.246 89.001V83.001H198.137V83.9072H198.199C198.309 83.6104 198.507 83.3695 198.793 83.1846C199.079 82.9997 199.402 82.9072 199.762 82.9072C199.829 82.9072 199.914 82.9085 200.016 82.9111C200.117 82.9137 200.194 82.9176 200.246 82.9229V83.8604C200.215 83.8525 200.143 83.8408 200.031 83.8252C199.922 83.807 199.806 83.7979 199.684 83.7979C199.392 83.7979 199.132 83.859 198.902 83.9814C198.676 84.1012 198.496 84.2679 198.363 84.4814C198.233 84.6924 198.168 84.9333 198.168 85.2041V89.001H197.246ZM201.339 89.001V83.001H202.261V89.001H201.339ZM201.808 82.001C201.628 82.001 201.473 81.9398 201.343 81.8174C201.215 81.695 201.151 81.5479 201.151 81.376C201.151 81.2041 201.215 81.057 201.343 80.9346C201.473 80.8122 201.628 80.751 201.808 80.751C201.987 80.751 202.141 80.8122 202.269 80.9346C202.399 81.057 202.464 81.2041 202.464 81.376C202.464 81.5479 202.399 81.695 202.269 81.8174C202.141 81.9398 201.987 82.001 201.808 82.001ZM204.871 85.3916V89.001H203.949V83.001H204.84V83.9385H204.918C205.059 83.6338 205.272 83.389 205.559 83.2041C205.845 83.0166 206.215 82.9229 206.668 82.9229C207.074 82.9229 207.43 83.0062 207.734 83.1729C208.039 83.3369 208.276 83.5869 208.445 83.9229C208.615 84.2562 208.699 84.6781 208.699 85.1885V89.001H207.777V85.251C207.777 84.7796 207.655 84.4124 207.41 84.1494C207.165 83.8838 206.829 83.751 206.402 83.751C206.108 83.751 205.845 83.8148 205.613 83.9424C205.384 84.07 205.203 84.2562 205.07 84.501C204.938 84.7458 204.871 85.0426 204.871 85.3916ZM212.993 83.001V83.7822H209.884V83.001H212.993ZM210.79 81.5635H211.712V87.2822C211.712 87.5426 211.75 87.738 211.825 87.8682C211.903 87.9958 212.002 88.0817 212.122 88.126C212.244 88.1676 212.373 88.1885 212.509 88.1885C212.61 88.1885 212.694 88.1833 212.759 88.1729C212.824 88.1598 212.876 88.1494 212.915 88.1416L213.103 88.9697C213.04 88.9932 212.953 89.0166 212.841 89.04C212.729 89.0661 212.587 89.0791 212.415 89.0791C212.155 89.0791 211.899 89.0231 211.649 88.9111C211.402 88.7992 211.196 88.6286 211.032 88.3994C210.871 88.1702 210.79 87.8812 210.79 87.5322V81.5635Z" fill="#A0A09D"></path><rect x="219.3" y="77.301" width="40.4" height="16.4" rx="3.7" fill="#FEF4F0"></rect><rect x="219.3" y="77.301" width="40.4" height="16.4" rx="3.7" stroke="#FFDDC8" stroke-width="0.6"></rect><path d="M226.928 85.4676V86.3873H223.703V85.4676H226.928ZM231.088 81.7282V89.001H229.987V82.8291H229.944L228.204 83.9655V82.9143L230.019 81.7282H231.088ZM233.349 89.0684C233.155 89.0684 232.988 88.9998 232.848 88.8625C232.709 88.7228 232.639 88.5547 232.639 88.3582C232.639 88.1641 232.709 87.9984 232.848 87.8611C232.988 87.7214 233.155 87.6515 233.349 87.6515C233.543 87.6515 233.71 87.7214 233.85 87.8611C233.989 87.9984 234.059 88.1641 234.059 88.3582C234.059 88.4884 234.026 88.608 233.96 88.7169C233.896 88.8234 233.811 88.9086 233.704 88.9726C233.597 89.0365 233.479 89.0684 233.349 89.0684ZM235.314 87.5805V86.6927L238.457 81.7282H239.157V83.0351H238.713L236.465 86.5933V86.6501H240.773V87.5805H235.314ZM238.763 89.001V87.3106L238.77 86.9058V81.7282H239.81V89.001H238.763ZM244.428 81.6288C244.753 81.6312 245.072 81.6904 245.387 81.8064C245.702 81.9224 245.986 82.1118 246.24 82.3746C246.495 82.6373 246.699 82.9925 246.85 83.4399C247.004 83.885 247.082 84.439 247.085 85.1018C247.085 85.7387 247.021 86.3057 246.893 86.8028C246.765 87.2976 246.582 87.7155 246.343 88.0564C246.106 88.3973 245.818 88.6565 245.48 88.8341C245.141 89.0116 244.76 89.1004 244.336 89.1004C243.903 89.1004 243.518 89.0152 243.182 88.8447C242.846 88.6743 242.572 88.4387 242.362 88.1381C242.151 87.835 242.02 87.487 241.968 87.094H243.051C243.122 87.4065 243.266 87.6598 243.484 87.854C243.704 88.0457 243.988 88.1416 244.336 88.1416C244.869 88.1416 245.284 87.9096 245.583 87.4456C245.881 86.9792 246.031 86.3282 246.034 85.4925H245.977C245.854 85.6961 245.7 85.8712 245.515 86.018C245.333 86.1648 245.128 86.2784 244.901 86.3589C244.673 86.4394 244.431 86.4797 244.173 86.4797C243.754 86.4797 243.373 86.3767 243.029 86.1707C242.686 85.9648 242.413 85.6818 242.209 85.322C242.005 84.9622 241.904 84.5514 241.904 84.0898C241.904 83.6305 242.008 83.2138 242.216 82.8398C242.427 82.4657 242.72 82.1698 243.097 81.952C243.476 81.7318 243.919 81.6241 244.428 81.6288ZM244.432 82.5521C244.155 82.5521 243.905 82.6208 243.683 82.7581C243.463 82.893 243.289 83.0765 243.161 83.3085C243.033 83.5381 242.969 83.7938 242.969 84.0756C242.969 84.3573 243.03 84.613 243.154 84.8426C243.279 85.0699 243.45 85.251 243.665 85.3859C243.883 85.5185 244.131 85.5848 244.411 85.5848C244.619 85.5848 244.813 85.5445 244.993 85.464C245.173 85.3836 245.33 85.2723 245.465 85.1302C245.6 84.9858 245.706 84.8225 245.781 84.6402C245.857 84.4579 245.895 84.2661 245.895 84.0649C245.895 83.7974 245.831 83.5488 245.703 83.3192C245.578 83.0895 245.405 82.9049 245.185 82.7652C244.965 82.6231 244.714 82.5521 244.432 82.5521ZM252.164 87.6373V87.2538C252.164 86.9792 252.221 86.7282 252.334 86.501C252.45 86.2713 252.618 86.0879 252.838 85.9506C253.061 85.8109 253.33 85.741 253.645 85.741C253.967 85.741 254.236 85.8097 254.454 85.947C254.672 86.0843 254.837 86.2678 254.948 86.4974C255.061 86.7271 255.118 86.9792 255.118 87.2538V87.6373C255.118 87.912 255.061 88.1641 254.948 88.3937C254.834 88.621 254.667 88.8045 254.447 88.9442C254.229 89.0815 253.962 89.1501 253.645 89.1501C253.325 89.1501 253.055 89.0815 252.835 88.9442C252.615 88.8045 252.448 88.621 252.334 88.3937C252.221 88.1641 252.164 87.912 252.164 87.6373ZM252.991 87.2538V87.6373C252.991 87.8409 253.04 88.0256 253.137 88.1913C253.234 88.357 253.403 88.4399 253.645 88.4399C253.884 88.4399 254.051 88.357 254.145 88.1913C254.24 88.0256 254.287 87.8409 254.287 87.6373V87.2538C254.287 87.0502 254.241 86.8656 254.149 86.6998C254.059 86.5341 253.891 86.4513 253.645 86.4513C253.408 86.4513 253.24 86.5341 253.14 86.6998C253.041 86.8656 252.991 87.0502 252.991 87.2538ZM248.506 83.4754V83.0919C248.506 82.8173 248.563 82.5651 248.676 82.3355C248.792 82.1059 248.961 81.9224 249.181 81.7851C249.403 81.6478 249.672 81.5791 249.987 81.5791C250.309 81.5791 250.579 81.6478 250.797 81.7851C251.014 81.9224 251.179 82.1059 251.29 82.3355C251.401 82.5651 251.457 82.8173 251.457 83.0919V83.4754C251.457 83.75 251.4 84.0022 251.287 84.2318C251.175 84.4591 251.01 84.6425 250.789 84.7822C250.572 84.9195 250.304 84.9882 249.987 84.9882C249.665 84.9882 249.394 84.9195 249.174 84.7822C248.956 84.6425 248.79 84.4591 248.676 84.2318C248.563 84.0022 248.506 83.75 248.506 83.4754ZM249.337 83.0919V83.4754C249.337 83.679 249.384 83.8637 249.479 84.0294C249.576 84.1951 249.745 84.278 249.987 84.278C250.224 84.278 250.389 84.1951 250.484 84.0294C250.581 83.8637 250.63 83.679 250.63 83.4754V83.0919C250.63 82.8883 250.583 82.7036 250.491 82.5379C250.399 82.3722 250.231 82.2893 249.987 82.2893C249.75 82.2893 249.582 82.3722 249.483 82.5379C249.386 82.7036 249.337 82.8883 249.337 83.0919ZM248.843 89.001L253.843 81.7282H254.692L249.692 89.001H248.843Z" fill="#D14200"></path><path d="M164.406 104.501H163.438C163.38 104.222 163.28 103.978 163.137 103.767C162.996 103.556 162.824 103.379 162.621 103.235C162.421 103.09 162.198 102.98 161.953 102.907C161.708 102.834 161.453 102.798 161.188 102.798C160.703 102.798 160.264 102.92 159.871 103.165C159.48 103.41 159.169 103.771 158.938 104.247C158.708 104.724 158.594 105.308 158.594 106.001C158.594 106.694 158.708 107.278 158.938 107.755C159.169 108.231 159.48 108.592 159.871 108.837C160.264 109.082 160.703 109.204 161.188 109.204C161.453 109.204 161.708 109.168 161.953 109.095C162.198 109.022 162.421 108.914 162.621 108.771C162.824 108.625 162.996 108.446 163.137 108.235C163.28 108.022 163.38 107.777 163.438 107.501H164.406C164.333 107.91 164.201 108.276 164.008 108.599C163.815 108.922 163.576 109.196 163.289 109.423C163.003 109.647 162.681 109.817 162.324 109.935C161.97 110.052 161.591 110.11 161.188 110.11C160.505 110.11 159.898 109.944 159.367 109.61C158.836 109.277 158.418 108.803 158.113 108.188C157.809 107.574 157.656 106.845 157.656 106.001C157.656 105.157 157.809 104.428 158.113 103.813C158.418 103.199 158.836 102.725 159.367 102.392C159.898 102.058 160.505 101.892 161.188 101.892C161.591 101.892 161.97 101.95 162.324 102.067C162.681 102.185 163.003 102.356 163.289 102.583C163.576 102.807 163.815 103.08 164.008 103.403C164.201 103.724 164.333 104.09 164.406 104.501ZM168.284 110.126C167.743 110.126 167.267 109.997 166.858 109.739C166.452 109.481 166.134 109.121 165.905 108.657C165.679 108.194 165.565 107.652 165.565 107.032C165.565 106.407 165.679 105.862 165.905 105.396C166.134 104.929 166.452 104.567 166.858 104.31C167.267 104.052 167.743 103.923 168.284 103.923C168.826 103.923 169.3 104.052 169.706 104.31C170.115 104.567 170.433 104.929 170.659 105.396C170.888 105.862 171.003 106.407 171.003 107.032C171.003 107.652 170.888 108.194 170.659 108.657C170.433 109.121 170.115 109.481 169.706 109.739C169.3 109.997 168.826 110.126 168.284 110.126ZM168.284 109.298C168.696 109.298 169.034 109.192 169.3 108.981C169.565 108.771 169.762 108.493 169.89 108.149C170.017 107.806 170.081 107.433 170.081 107.032C170.081 106.631 170.017 106.257 169.89 105.911C169.762 105.565 169.565 105.285 169.3 105.071C169.034 104.858 168.696 104.751 168.284 104.751C167.873 104.751 167.534 104.858 167.269 105.071C167.003 105.285 166.806 105.565 166.679 105.911C166.551 106.257 166.487 106.631 166.487 107.032C166.487 107.433 166.551 107.806 166.679 108.149C166.806 108.493 167.003 108.771 167.269 108.981C167.534 109.192 167.873 109.298 168.284 109.298ZM172.41 110.001V104.001H173.301V104.938H173.379C173.504 104.618 173.706 104.369 173.984 104.192C174.263 104.013 174.598 103.923 174.988 103.923C175.384 103.923 175.714 104.013 175.977 104.192C176.242 104.369 176.449 104.618 176.598 104.938H176.66C176.814 104.629 177.044 104.382 177.352 104.2C177.659 104.015 178.027 103.923 178.457 103.923C178.993 103.923 179.432 104.091 179.773 104.427C180.115 104.76 180.285 105.28 180.285 105.985V110.001H179.363V105.985C179.363 105.543 179.242 105.226 179 105.036C178.758 104.846 178.473 104.751 178.145 104.751C177.723 104.751 177.396 104.879 177.164 105.134C176.932 105.386 176.816 105.707 176.816 106.095V110.001H175.879V105.892C175.879 105.55 175.768 105.276 175.547 105.067C175.326 104.856 175.04 104.751 174.691 104.751C174.452 104.751 174.228 104.815 174.02 104.942C173.814 105.07 173.647 105.247 173.52 105.474C173.395 105.698 173.332 105.957 173.332 106.251V110.001H172.41ZM181.971 112.251V104.001H182.861V104.954H182.971C183.038 104.85 183.132 104.717 183.252 104.556C183.374 104.392 183.549 104.246 183.775 104.118C184.005 103.988 184.314 103.923 184.705 103.923C185.21 103.923 185.656 104.049 186.041 104.302C186.426 104.554 186.727 104.912 186.943 105.376C187.16 105.84 187.268 106.386 187.268 107.017C187.268 107.652 187.16 108.203 186.943 108.669C186.727 109.132 186.428 109.492 186.045 109.747C185.662 110 185.221 110.126 184.721 110.126C184.335 110.126 184.027 110.062 183.795 109.935C183.563 109.804 183.385 109.657 183.26 109.493C183.135 109.326 183.038 109.188 182.971 109.079H182.893V112.251H181.971ZM182.877 107.001C182.877 107.454 182.943 107.854 183.076 108.2C183.209 108.544 183.403 108.813 183.658 109.009C183.913 109.201 184.226 109.298 184.596 109.298C184.981 109.298 185.303 109.196 185.561 108.993C185.821 108.787 186.016 108.511 186.146 108.165C186.279 107.816 186.346 107.428 186.346 107.001C186.346 106.579 186.281 106.199 186.15 105.86C186.023 105.519 185.829 105.25 185.568 105.052C185.311 104.851 184.986 104.751 184.596 104.751C184.221 104.751 183.906 104.846 183.65 105.036C183.395 105.224 183.202 105.487 183.072 105.825C182.942 106.161 182.877 106.553 182.877 107.001ZM191.189 110.126C190.611 110.126 190.113 109.998 189.693 109.743C189.277 109.485 188.955 109.126 188.729 108.665C188.505 108.201 188.393 107.662 188.393 107.048C188.393 106.433 188.505 105.892 188.729 105.423C188.955 104.951 189.27 104.584 189.674 104.321C190.08 104.056 190.554 103.923 191.096 103.923C191.408 103.923 191.717 103.975 192.021 104.079C192.326 104.183 192.604 104.353 192.854 104.587C193.104 104.819 193.303 105.126 193.451 105.509C193.6 105.892 193.674 106.363 193.674 106.923V107.313H189.049V106.517H192.736C192.736 106.178 192.669 105.876 192.533 105.61C192.4 105.345 192.21 105.135 191.963 104.981C191.718 104.828 191.429 104.751 191.096 104.751C190.729 104.751 190.411 104.842 190.143 105.024C189.877 105.204 189.673 105.438 189.529 105.728C189.386 106.017 189.314 106.326 189.314 106.657V107.188C189.314 107.642 189.393 108.026 189.549 108.341C189.708 108.653 189.928 108.892 190.209 109.056C190.49 109.217 190.817 109.298 191.189 109.298C191.432 109.298 191.65 109.264 191.846 109.196C192.044 109.126 192.214 109.022 192.357 108.884C192.501 108.743 192.611 108.569 192.689 108.36L193.58 108.61C193.486 108.912 193.329 109.178 193.107 109.407C192.886 109.634 192.613 109.811 192.287 109.938C191.962 110.063 191.596 110.126 191.189 110.126ZM197.686 104.001V104.782H194.576V104.001H197.686ZM195.482 102.563H196.404V108.282C196.404 108.543 196.442 108.738 196.518 108.868C196.596 108.996 196.695 109.082 196.814 109.126C196.937 109.168 197.066 109.188 197.201 109.188C197.303 109.188 197.386 109.183 197.451 109.173C197.516 109.16 197.568 109.149 197.607 109.142L197.795 109.97C197.732 109.993 197.645 110.017 197.533 110.04C197.421 110.066 197.279 110.079 197.107 110.079C196.847 110.079 196.592 110.023 196.342 109.911C196.094 109.799 195.889 109.629 195.725 109.399C195.563 109.17 195.482 108.881 195.482 108.532V102.563ZM199.072 110.001V104.001H199.994V110.001H199.072ZM199.541 103.001C199.361 103.001 199.206 102.94 199.076 102.817C198.949 102.695 198.885 102.548 198.885 102.376C198.885 102.204 198.949 102.057 199.076 101.935C199.206 101.812 199.361 101.751 199.541 101.751C199.721 101.751 199.874 101.812 200.002 101.935C200.132 102.057 200.197 102.204 200.197 102.376C200.197 102.548 200.132 102.695 200.002 102.817C199.874 102.94 199.721 103.001 199.541 103.001ZM204.292 104.001V104.782H201.183V104.001H204.292ZM202.089 102.563H203.011V108.282C203.011 108.543 203.049 108.738 203.124 108.868C203.202 108.996 203.301 109.082 203.421 109.126C203.543 109.168 203.672 109.188 203.808 109.188C203.909 109.188 203.993 109.183 204.058 109.173C204.123 109.16 204.175 109.149 204.214 109.142L204.401 109.97C204.339 109.993 204.252 110.017 204.14 110.04C204.028 110.066 203.886 110.079 203.714 110.079C203.453 110.079 203.198 110.023 202.948 109.911C202.701 109.799 202.495 109.629 202.331 109.399C202.17 109.17 202.089 108.881 202.089 108.532V102.563ZM208.052 110.126C207.51 110.126 207.035 109.997 206.626 109.739C206.22 109.481 205.902 109.121 205.673 108.657C205.446 108.194 205.333 107.652 205.333 107.032C205.333 106.407 205.446 105.862 205.673 105.396C205.902 104.929 206.22 104.567 206.626 104.31C207.035 104.052 207.51 103.923 208.052 103.923C208.593 103.923 209.067 104.052 209.474 104.31C209.882 104.567 210.2 104.929 210.427 105.396C210.656 105.862 210.771 106.407 210.771 107.032C210.771 107.652 210.656 108.194 210.427 108.657C210.2 109.121 209.882 109.481 209.474 109.739C209.067 109.997 208.593 110.126 208.052 110.126ZM208.052 109.298C208.463 109.298 208.802 109.192 209.067 108.981C209.333 108.771 209.53 108.493 209.657 108.149C209.785 107.806 209.849 107.433 209.849 107.032C209.849 106.631 209.785 106.257 209.657 105.911C209.53 105.565 209.333 105.285 209.067 105.071C208.802 104.858 208.463 104.751 208.052 104.751C207.64 104.751 207.302 104.858 207.036 105.071C206.771 105.285 206.574 105.565 206.446 105.911C206.319 106.257 206.255 106.631 206.255 107.032C206.255 107.433 206.319 107.806 206.446 108.149C206.574 108.493 206.771 108.771 207.036 108.981C207.302 109.192 207.64 109.298 208.052 109.298ZM212.178 110.001V104.001H213.068V104.907H213.131C213.24 104.61 213.438 104.369 213.725 104.185C214.011 104 214.334 103.907 214.693 103.907C214.761 103.907 214.846 103.909 214.947 103.911C215.049 103.914 215.126 103.918 215.178 103.923V104.86C215.146 104.853 215.075 104.841 214.963 104.825C214.854 104.807 214.738 104.798 214.615 104.798C214.324 104.798 214.063 104.859 213.834 104.981C213.607 105.101 213.428 105.268 213.295 105.481C213.165 105.692 213.1 105.933 213.1 106.204V110.001H212.178ZM220.521 105.345L219.692 105.579C219.64 105.441 219.563 105.307 219.462 105.177C219.363 105.044 219.228 104.935 219.056 104.849C218.884 104.763 218.664 104.72 218.396 104.72C218.028 104.72 217.722 104.804 217.478 104.974C217.235 105.14 217.114 105.353 217.114 105.61C217.114 105.84 217.198 106.021 217.364 106.153C217.531 106.286 217.791 106.397 218.146 106.485L219.036 106.704C219.573 106.834 219.972 107.034 220.235 107.302C220.498 107.567 220.63 107.91 220.63 108.329C220.63 108.673 220.531 108.98 220.333 109.251C220.138 109.522 219.864 109.735 219.513 109.892C219.161 110.048 218.752 110.126 218.286 110.126C217.674 110.126 217.168 109.993 216.767 109.728C216.366 109.462 216.112 109.074 216.005 108.563L216.88 108.345C216.963 108.668 217.121 108.91 217.353 109.071C217.587 109.233 217.893 109.313 218.271 109.313C218.7 109.313 219.041 109.222 219.294 109.04C219.549 108.855 219.677 108.634 219.677 108.376C219.677 108.168 219.604 107.993 219.458 107.853C219.312 107.709 219.088 107.603 218.786 107.532L217.786 107.298C217.237 107.168 216.833 106.966 216.575 106.692C216.32 106.416 216.192 106.071 216.192 105.657C216.192 105.319 216.287 105.019 216.478 104.759C216.67 104.498 216.932 104.294 217.263 104.146C217.596 103.997 217.974 103.923 218.396 103.923C218.989 103.923 219.455 104.053 219.794 104.313C220.135 104.574 220.377 104.918 220.521 105.345Z" fill="#A0A09D"></path><rect x="227.3" y="98.301" width="48.4" height="16.4" rx="3.7" fill="#F8F7FE"></rect><rect x="227.3" y="98.301" width="48.4" height="16.4" rx="3.7" stroke="#D8D2F8" stroke-width="0.6"></rect><path d="M234.928 106.468V107.387H231.703V106.468H234.928ZM236.329 110.001L239.504 103.723V103.669H235.832V102.728H240.64V103.701L237.476 110.001H236.329ZM244.186 110.1C243.677 110.1 243.227 110.013 242.837 109.838C242.449 109.662 242.144 109.421 241.924 109.113C241.704 108.805 241.595 108.455 241.597 108.062C241.595 107.754 241.658 107.471 241.786 107.213C241.916 106.953 242.092 106.736 242.315 106.563C242.537 106.388 242.786 106.277 243.061 106.23V106.187C242.698 106.099 242.408 105.905 242.191 105.605C241.973 105.304 241.865 104.958 241.867 104.568C241.865 104.196 241.963 103.865 242.162 103.573C242.363 103.28 242.639 103.049 242.99 102.881C243.34 102.713 243.739 102.629 244.186 102.629C244.629 102.629 245.024 102.714 245.372 102.884C245.723 103.053 245.999 103.283 246.2 103.577C246.401 103.868 246.503 104.198 246.505 104.568C246.503 104.958 246.392 105.304 246.171 105.605C245.951 105.905 245.665 106.099 245.312 106.187V106.23C245.584 106.277 245.829 106.388 246.047 106.563C246.267 106.736 246.442 106.953 246.573 107.213C246.705 107.471 246.773 107.754 246.775 108.062C246.773 108.455 246.661 108.805 246.441 109.113C246.221 109.421 245.916 109.662 245.525 109.838C245.137 110.013 244.691 110.1 244.186 110.1ZM244.186 109.202C244.487 109.202 244.747 109.152 244.968 109.053C245.188 108.951 245.358 108.81 245.479 108.63C245.6 108.448 245.661 108.235 245.664 107.991C245.661 107.738 245.595 107.514 245.465 107.32C245.337 107.126 245.163 106.973 244.943 106.862C244.722 106.751 244.47 106.695 244.186 106.695C243.9 106.695 243.645 106.751 243.423 106.862C243.2 106.973 243.025 107.126 242.897 107.32C242.769 107.514 242.707 107.738 242.709 107.991C242.707 108.235 242.765 108.448 242.883 108.63C243.004 108.81 243.175 108.951 243.398 109.053C243.62 109.152 243.883 109.202 244.186 109.202ZM244.186 105.818C244.428 105.818 244.642 105.769 244.829 105.672C245.016 105.575 245.163 105.44 245.269 105.267C245.378 105.094 245.434 104.892 245.436 104.66C245.434 104.433 245.379 104.234 245.273 104.063C245.169 103.893 245.023 103.762 244.836 103.669C244.649 103.575 244.432 103.527 244.186 103.527C243.935 103.527 243.715 103.575 243.526 103.669C243.339 103.762 243.193 103.893 243.089 104.063C242.985 104.234 242.934 104.433 242.936 104.66C242.934 104.892 242.986 105.094 243.093 105.267C243.199 105.44 243.346 105.575 243.533 105.672C243.722 105.769 243.94 105.818 244.186 105.818ZM248.546 110.068C248.352 110.068 248.185 110 248.045 109.862C247.906 109.723 247.836 109.555 247.836 109.358C247.836 109.164 247.906 108.998 248.045 108.861C248.185 108.721 248.352 108.652 248.546 108.652C248.74 108.652 248.907 108.721 249.047 108.861C249.187 108.998 249.256 109.164 249.256 109.358C249.256 109.488 249.223 109.608 249.157 109.717C249.093 109.823 249.008 109.909 248.901 109.973C248.795 110.036 248.676 110.068 248.546 110.068ZM250.512 108.581V107.693L253.654 102.728H254.354V104.035H253.91L251.662 107.593V107.65H255.97V108.581H250.512ZM253.96 110.001V108.311L253.967 107.906V102.728H255.007V110.001H253.96ZM259.739 110.122C259.178 110.119 258.699 109.971 258.301 109.678C257.903 109.384 257.599 108.957 257.388 108.396C257.178 107.835 257.072 107.159 257.072 106.368C257.072 105.58 257.178 104.906 257.388 104.348C257.602 103.789 257.907 103.363 258.305 103.069C258.705 102.776 259.183 102.629 259.739 102.629C260.296 102.629 260.773 102.777 261.17 103.073C261.568 103.366 261.872 103.792 262.083 104.351C262.296 104.907 262.403 105.58 262.403 106.368C262.403 107.161 262.297 107.838 262.087 108.399C261.876 108.958 261.572 109.385 261.174 109.681C260.776 109.975 260.298 110.122 259.739 110.122ZM259.739 109.174C260.232 109.174 260.616 108.933 260.893 108.453C261.173 107.972 261.312 107.277 261.312 106.368C261.312 105.764 261.249 105.254 261.121 104.838C260.995 104.419 260.814 104.101 260.577 103.886C260.343 103.668 260.064 103.559 259.739 103.559C259.249 103.559 258.865 103.801 258.585 104.284C258.306 104.767 258.165 105.461 258.163 106.368C258.163 106.974 258.225 107.487 258.351 107.906C258.479 108.322 258.66 108.639 258.894 108.854C259.129 109.067 259.41 109.174 259.739 109.174ZM267.459 108.637V108.254C267.459 107.979 267.515 107.728 267.629 107.501C267.745 107.271 267.913 107.088 268.133 106.951C268.356 106.811 268.625 106.741 268.939 106.741C269.261 106.741 269.531 106.81 269.749 106.947C269.967 107.084 270.131 107.268 270.243 107.497C270.356 107.727 270.413 107.979 270.413 108.254V108.637C270.413 108.912 270.356 109.164 270.243 109.394C270.129 109.621 269.962 109.804 269.742 109.944C269.524 110.081 269.257 110.15 268.939 110.15C268.62 110.15 268.35 110.081 268.13 109.944C267.91 109.804 267.743 109.621 267.629 109.394C267.515 109.164 267.459 108.912 267.459 108.637ZM268.286 108.254V108.637C268.286 108.841 268.335 109.026 268.432 109.191C268.529 109.357 268.698 109.44 268.939 109.44C269.179 109.44 269.345 109.357 269.44 109.191C269.535 109.026 269.582 108.841 269.582 108.637V108.254C269.582 108.05 269.536 107.866 269.444 107.7C269.354 107.534 269.186 107.451 268.939 107.451C268.703 107.451 268.535 107.534 268.435 107.7C268.336 107.866 268.286 108.05 268.286 108.254ZM263.801 104.475V104.092C263.801 103.817 263.858 103.565 263.971 103.335C264.087 103.106 264.256 102.922 264.476 102.785C264.698 102.648 264.967 102.579 265.282 102.579C265.604 102.579 265.874 102.648 266.091 102.785C266.309 102.922 266.474 103.106 266.585 103.335C266.696 103.565 266.752 103.817 266.752 104.092V104.475C266.752 104.75 266.695 105.002 266.581 105.232C266.47 105.459 266.305 105.643 266.084 105.782C265.867 105.92 265.599 105.988 265.282 105.988C264.96 105.988 264.689 105.92 264.469 105.782C264.251 105.643 264.085 105.459 263.971 105.232C263.858 105.002 263.801 104.75 263.801 104.475ZM264.632 104.092V104.475C264.632 104.679 264.679 104.864 264.774 105.029C264.871 105.195 265.04 105.278 265.282 105.278C265.519 105.278 265.684 105.195 265.779 105.029C265.876 104.864 265.925 104.679 265.925 104.475V104.092C265.925 103.888 265.878 103.704 265.786 103.538C265.694 103.372 265.526 103.289 265.282 103.289C265.045 103.289 264.877 103.372 264.778 103.538C264.68 103.704 264.632 103.888 264.632 104.092ZM264.138 110.001L269.138 102.728H269.987L264.987 110.001H264.138Z" fill="#7361B9"></path></g><rect x="150.5" y="43.501" width="132" height="80" rx="6.5" stroke="#E4E5E1" stroke-linecap="round"></rect></g></g><defs><filter id="filter0_d_3046_3308" x="255.186" y="17.4653" width="18.3899" height="19.9977" filterUnits="userSpaceOnUse" color-interpolation-filters="sRGB"><feFlood flood-opacity="0" result="BackgroundImageFix"></feFlood><feColorMatrix in="SourceAlpha" type="matrix" values="0 0 0 0 0 0 0 0 0 0 0 0 0 0 0 0 0 0 127 0" result="hardAlpha"></feColorMatrix><feOffset dy="3.21557"></feOffset><feGaussianBlur stdDeviation="0.803893"></feGaussianBlur><feComposite in2="hardAlpha" operator="out"></feComposite><feColorMatrix type="matrix" values="0 0 0 0 0.0941176 0 0 0 0 0.0980392 0 0 0 0 0.0862745 0 0 0 0.02 0"></feColorMatrix><feBlend mode="normal" in2="BackgroundImageFix" result="effect1_dropShadow_3046_3308"></feBlend><feBlend mode="normal" in="SourceGraphic" in2="effect1_dropShadow_3046_3308" result="shape"></feBlend></filter><filter id="filter1_i_3046_3308" x="261.165" y="21.8369" width="6.43115" height="11.2545" filterUnits="userSpaceOnUse" color-interpolation-filters="sRGB"><feFlood flood-opacity="0" result="BackgroundImageFix"></feFlood><feBlend mode="normal" in="SourceGraphic" in2="BackgroundImageFix" result="shape"></feBlend><feColorMatrix in="SourceAlpha" type="matrix" values="0 0 0 0 0 0 0 0 0 0 0 0 0 0 0 0 0 0 127 0" result="hardAlpha"></feColorMatrix><feOffset dy="4.82336"></feOffset><feGaussianBlur stdDeviation="2.41168"></feGaussianBlur><feComposite in2="hardAlpha" operator="arithmetic" k2="-1" k3="1"></feComposite><feColorMatrix type="matrix" values="0 0 0 0 0.0941176 0 0 0 0 0.0980392 0 0 0 0 0.0862745 0 0 0 0.04 0"></feColorMatrix><feBlend mode="normal" in2="shape" result="effect1_innerShadow_3046_3308"></feBlend></filter><filter id="filter2_d_3046_3308" x="255.238" y="141.133" width="17.4238" height="18.876" filterUnits="userSpaceOnUse" color-interpolation-filters="sRGB"><feFlood flood-opacity="0" result="BackgroundImageFix"></feFlood><feColorMatrix in="SourceAlpha" type="matrix" values="0 0 0 0 0 0 0 0 0 0 0 0 0 0 0 0 0 0 127 0" result="hardAlpha"></feColorMatrix><feOffset dy="2.904"></feOffset><feGaussianBlur stdDeviation="0.725999"></feGaussianBlur><feComposite in2="hardAlpha" operator="out"></feComposite><feColorMatrix type="matrix" values="0 0 0 0 0.0941176 0 0 0 0 0.0980392 0 0 0 0 0.0862745 0 0 0 0.02 0"></feColorMatrix><feBlend mode="normal" in2="BackgroundImageFix" result="effect1_dropShadow_3046_3308"></feBlend><feBlend mode="normal" in="SourceGraphic" in2="effect1_dropShadow_3046_3308" result="shape"></feBlend></filter><filter id="filter3_d_3046_3308" x="255.683" y="141.56" width="16.5336" height="17.9671" filterUnits="userSpaceOnUse" color-interpolation-filters="sRGB"><feFlood flood-opacity="0" result="BackgroundImageFix"></feFlood><feColorMatrix in="SourceAlpha" type="matrix" values="0 0 0 0 0 0 0 0 0 0 0 0 0 0 0 0 0 0 127 0" result="hardAlpha"></feColorMatrix><feOffset dy="2.86682"></feOffset><feGaussianBlur stdDeviation="0.716705"></feGaussianBlur><feComposite in2="hardAlpha" operator="out"></feComposite><feColorMatrix type="matrix" values="0 0 0 0 0.0941176 0 0 0 0 0.0980392 0 0 0 0 0.0862745 0 0 0 0.02 0"></feColorMatrix><feBlend mode="normal" in2="BackgroundImageFix" result="effect1_dropShadow_3046_3308"></feBlend><feBlend mode="normal" in="SourceGraphic" in2="effect1_dropShadow_3046_3308" result="shape"></feBlend></filter><filter id="filter4_i_3046_3308" x="261.083" y="145.527" width="5.73364" height="10.0339" filterUnits="userSpaceOnUse" color-interpolation-filters="sRGB"><feFlood flood-opacity="0" result="BackgroundImageFix"></feFlood><feBlend mode="normal" in="SourceGraphic" in2="BackgroundImageFix" result="shape"></feBlend><feColorMatrix in="SourceAlpha" type="matrix" values="0 0 0 0 0 0 0 0 0 0 0 0 0 0 0 0 0 0 127 0" result="hardAlpha"></feColorMatrix><feOffset dy="4.30023"></feOffset><feGaussianBlur stdDeviation="2.15012"></feGaussianBlur><feComposite in2="hardAlpha" operator="arithmetic" k2="-1" k3="1"></feComposite><feColorMatrix type="matrix" values="0 0 0 0 0.0941176 0 0 0 0 0.0980392 0 0 0 0 0.0862745 0 0 0 0.04 0"></feColorMatrix><feBlend mode="normal" in2="shape" result="effect1_innerShadow_3046_3308"></feBlend></filter><filter id="filter5_dd_3046_3308" x="130" y="43.001" width="173" height="121" filterUnits="userSpaceOnUse" color-interpolation-filters="sRGB"><feFlood flood-opacity="0" result="BackgroundImageFix"></feFlood><feColorMatrix in="SourceAlpha" type="matrix" values="0 0 0 0 0 0 0 0 0 0 0 0 0 0 0 0 0 0 127 0" result="hardAlpha"></feColorMatrix><feMorphology radius="6" operator="erode" in="SourceAlpha" result="effect1_dropShadow_3046_3308"></feMorphology><feOffset dy="8"></feOffset><feGaussianBlur stdDeviation="5"></feGaussianBlur><feComposite in2="hardAlpha" operator="out"></feComposite><feColorMatrix type="matrix" values="0 0 0 0 0.0941176 0 0 0 0 0.0980392 0 0 0 0 0.0862745 0 0 0 0.1 0"></feColorMatrix><feBlend mode="normal" in2="BackgroundImageFix" result="effect1_dropShadow_3046_3308"></feBlend><feColorMatrix in="SourceAlpha" type="matrix" values="0 0 0 0 0 0 0 0 0 0 0 0 0 0 0 0 0 0 127 0" result="hardAlpha"></feColorMatrix><feMorphology radius="5" operator="erode" in="SourceAlpha" result="effect2_dropShadow_3046_3308"></feMorphology><feOffset dy="20"></feOffset><feGaussianBlur stdDeviation="12.5"></feGaussianBlur><feComposite in2="hardAlpha" operator="out"></feComposite><feColorMatrix type="matrix" values="0 0 0 0 0.0941176 0 0 0 0 0.0980392 0 0 0 0 0.0862745 0 0 0 0.1 0"></feColorMatrix><feBlend mode="normal" in2="effect1_dropShadow_3046_3308" result="effect2_dropShadow_3046_3308"></feBlend><feBlend mode="normal" in="SourceGraphic" in2="effect2_dropShadow_3046_3308" result="shape"></feBlend></filter><linearGradient id="paint0_linear_3046_3308" x1="-1.91978" y1="21.8354" x2="345.681" y2="-8.64841" gradientUnits="userSpaceOnUse"><stop stop-color="#F35B22" stop-opacity="0"></stop><stop offset="0.0506713" stop-color="#F35B22"></stop><stop offset="0.94928" stop-color="#F35B22"></stop><stop offset="0.998677" stop-color="#F35B22"></stop></linearGradient><linearGradient id="paint1_linear_3046_3308" x1="-1.59737" y1="60.6971" x2="326.389" y2="37.1809" gradientUnits="userSpaceOnUse"><stop offset="0.00617269" stop-color="#907FDA" stop-opacity="0"></stop><stop offset="0.0789917" stop-color="#907FDA"></stop><stop offset="0.75" stop-color="#907FDA"></stop><stop offset="0.97" stop-color="#907FDA"></stop></linearGradient><linearGradient id="paint2_linear_3046_3308" x1="256.585" y1="128.311" x2="196.117" y2="67.6044" gradientUnits="userSpaceOnUse"><stop stop-color="#484946"></stop><stop offset="1" stop-color="#6E6F6C"></stop></linearGradient><clipPath id="clip0_3046_3308"><rect y="-0.000732422" width="296" height="224" rx="8" fill="white"></rect></clipPath><clipPath id="clip1_3046_3308"><rect x="151" y="44.001" width="131" height="79" rx="6" fill="white"></rect></clipPath></defs></svg>